# xmcd CD database file
#
# Track frame offsets:
#	150
#	14699
#	28619
#	43282
#	56174
#	74858
#	89902
#	103777
#	120056
#	134263
#	155604
#
# Disc length: 2247 seconds
#
# Revision: 1
# Processed by: cddbd v1.5.1PL2 Copyright (c) Steve Scherf et al.
# Submitted via: jetAudio 5
#
DISCID=a408c50b
DTITLE=Jimmy Ruffin - Hold On To My Love
DYEAR=2005
DGENRE=Soul
TTITLE0=What Becomes Of The Broken Hearted
TTITLE1=As Long As There Is L-O-V-E, Love
TTITLE2=Don't You Miss Me
TTITLE3=Gonna Give Her All The Love I've Got
TTITLE4=Hold On To My Love
TTITLE5=I'll Say Forever My Love
TTITLE6=I've Passed This Way Before
TTITLE7=Wake Me Up When It's Over
TTITLE8=Tell Me What You Want
TTITLE9=There Will Never Be Another You
TTITLE10=Too Busy Thinking About My Baby
EXTD=
EXTT0=
EXTT1=
EXTT2=
EXTT3=
EXTT4=
EXTT5=
EXTT6=
EXTT7=
EXTT8=
EXTT9=
EXTT10=
PLAYORDER=
